<svg width="30" height="30" viewBox="0 0 30 30" fill="none" xmlns="http://www.w3.org/2000/svg">
<g clip-path="url(#clip0_200_7867)">
<path d="M4.28147 0H8.56294C10.9276 0 12.8444 2.39269 12.8444 4.33218V8.66437C12.8444 11.0571 10.9276 12.9965 8.56294 12.9965H4.28147C1.91679 12.9965 0 10.6039 0 8.66437V4.33218C0 1.93949 1.91679 0 4.28147 0Z" fill="white"/>
<path d="M21.4035 0H25.685C28.0497 0 29.9665 2.39269 29.9665 4.33218V8.66437C29.9665 11.0571 28.0497 12.9965 25.685 12.9965H21.4035C19.0389 12.9965 17.1221 10.6039 17.1221 8.66437V4.33218C17.1221 1.93949 19.0389 0 21.4035 0Z" fill="white"/>
<path d="M4.28147 16.9883H8.56294C10.9276 16.9883 12.8444 19.381 12.8444 21.3205V25.6526C12.8444 28.0453 10.9276 29.9848 8.56294 29.9848H4.28147C1.91679 29.9848 0 27.5921 0 25.6526V21.3205C0 18.9278 1.91679 16.9883 4.28147 16.9883Z" fill="white"/>
<path d="M21.4035 16.9883H25.685C28.0497 16.9883 29.9665 19.381 29.9665 21.3205V25.6526C29.9665 28.0453 28.0497 29.9848 25.685 29.9848H21.4035C19.0389 29.9848 17.1221 27.5921 17.1221 25.6526V21.3205C17.1221 18.9278 19.0389 16.9883 21.4035 16.9883Z" fill="white"/>
</g>
<defs>
<clipPath id="clip0_200_7867">
<rect width="30" height="30" fill="white"/>
</clipPath>
</defs>
</svg>
