<svg width="33" height="26" viewBox="0 0 33 26" fill="none" xmlns="http://www.w3.org/2000/svg">
<g clip-path="url(#clip0_200_7842)">
<mask id="mask0_200_7842" style="mask-type:luminance" maskUnits="userSpaceOnUse" x="0" y="0" width="32" height="26">
<path d="M31.8333 0H0.5V26H31.8333V0Z" fill="white"/>
</mask>
<g mask="url(#mask0_200_7842)">
<path d="M3.95652 3.39784C3.8974 1.6301 5.22007 0 7.00791 0H25.3277C27.1155 0 28.4382 1.6301 28.3791 3.39784C28.3223 5.09594 28.396 7.29561 28.9277 9.08917C29.461 10.8883 30.3604 12.0254 31.8333 12.1716V13.8284C30.3604 13.9746 29.461 15.1117 28.9277 16.9108C28.396 18.7044 28.3223 20.9041 28.3791 22.6022C28.4382 24.3699 27.1155 26 25.3277 26H7.00791C5.22007 26 3.8974 24.3699 3.95658 22.6022C4.01331 20.9041 3.93957 18.7044 3.40788 16.9108C2.8746 15.1117 1.97303 13.9746 0.5 13.8284V12.1716C1.97297 12.0254 2.8746 10.8883 3.40788 9.08917C3.93957 7.29561 4.01331 5.09594 3.95652 3.39784Z" fill="white"/>
<g filter="url(#filter0_d_200_7842)">
<path d="M16.8457 19.9124C19.7402 19.9124 21.4844 18.4367 21.4844 16.0025C21.4844 14.1626 20.2398 12.8305 18.3919 12.6197V12.543C19.7496 12.313 20.815 11.0002 20.815 9.53395C20.815 7.44483 19.2311 6.08398 16.8174 6.08398H11.3867V19.9124H16.8457ZM13.4986 7.8377H16.3083C17.8357 7.8377 18.703 8.54684 18.703 9.83097C18.703 11.2014 17.6943 11.968 15.8652 11.968H13.4986V7.8377ZM13.4986 18.1588V13.6068H16.2894C18.2882 13.6068 19.3253 14.3734 19.3253 15.8684C19.3253 17.3633 18.3165 18.1588 16.412 18.1588H13.4986Z" fill="#1E1E1E"/>
<path d="M21.9844 16.0025C21.9844 14.3837 21.1296 13.1032 19.7873 12.4886C20.7097 11.8374 21.315 10.7235 21.315 9.53395C21.315 8.35404 20.8631 7.34957 20.0478 6.64682C19.2397 5.95033 18.1154 5.58398 16.8174 5.58398H11.3867H10.8867V6.08398V19.9124V20.4124H11.3867H16.8457C18.3726 20.4124 19.6593 20.0233 20.5729 19.2524C21.4972 18.4726 21.9844 17.3478 21.9844 16.0025ZM13.9986 8.3377H16.3083C17.0029 8.3377 17.4721 8.49976 17.7595 8.73782C18.0324 8.96393 18.203 9.30948 18.203 9.83097C18.203 10.3796 18.0091 10.7574 17.6688 11.0143C17.3073 11.2872 16.7204 11.468 15.8652 11.468H13.9986V8.3377ZM13.9986 17.6588V14.1068H16.2894C17.2383 14.1068 17.8723 14.291 18.2586 14.5782C18.6187 14.8459 18.8253 15.2492 18.8253 15.8684C18.8253 16.4937 18.6209 16.908 18.2737 17.1812C17.9061 17.4704 17.3059 17.6588 16.412 17.6588H13.9986Z" fill="#1E1E1E" stroke="white"/>
</g>
</g>
</g>
<defs>
<filter id="filter0_d_200_7842" x="-0.279942" y="-2.91601" width="33.431" height="37.1614" filterUnits="userSpaceOnUse" color-interpolation-filters="sRGB">
<feFlood flood-opacity="0" result="BackgroundImageFix"/>
<feColorMatrix in="SourceAlpha" type="matrix" values="0 0 0 0 0 0 0 0 0 0 0 0 0 0 0 0 0 0 127 0" result="hardAlpha"/>
<feOffset dy="2.66667"/>
<feGaussianBlur stdDeviation="5.33333"/>
<feColorMatrix type="matrix" values="0 0 0 0 0 0 0 0 0 0 0 0 0 0 0 0 0 0 0.15 0"/>
<feBlend mode="normal" in2="BackgroundImageFix" result="effect1_dropShadow_200_7842"/>
<feBlend mode="normal" in="SourceGraphic" in2="effect1_dropShadow_200_7842" result="shape"/>
</filter>
<clipPath id="clip0_200_7842">
<rect width="32" height="26" fill="white" transform="translate(0.5)"/>
</clipPath>
</defs>
</svg>
