<svg width="33" height="32" viewBox="0 0 33 32" fill="none" xmlns="http://www.w3.org/2000/svg">
<g clip-path="url(#clip0_200_7830)">
<path fill-rule="evenodd" clip-rule="evenodd" d="M32.4738 15.0769C32.0247 7.1816 25.851 0.818337 18.0385 0.07301V15.0769H32.4738ZM32.5 16H18.0385H17.1154V15.0769V0.0116165C16.9112 0.00389537 16.7061 0 16.5 0C7.66344 0 0.5 7.16344 0.5 16C0.5 24.8366 7.66344 32 16.5 32C25.3366 32 32.5 24.8366 32.5 16Z" fill="white"/>
<path d="M8.80472 25.2318C9.95606 25.2318 10.7363 24.5766 10.7363 23.5631C10.7363 22.4575 9.84188 22.1504 9.01406 21.9047C8.26236 21.6692 8.00545 21.5668 8.00545 21.229C8.00545 20.9321 8.31945 20.7581 8.7286 20.7581C9.15679 20.7581 9.66109 20.9219 10.1273 21.2392L10.6126 20.3281C10.0798 19.9493 9.40418 19.6934 8.7286 19.6934C7.63436 19.6934 6.87315 20.3691 6.87315 21.3621C6.88266 22.3039 7.55824 22.6315 8.62394 22.9284C9.18533 23.0922 9.61351 23.2253 9.61351 23.6348C9.61351 23.9624 9.29 24.1774 8.82375 24.1774C8.20527 24.1774 7.65339 23.9317 7.17763 23.5631L6.6543 24.4333C7.24424 24.9452 8.05303 25.2318 8.80472 25.2318Z" fill="#171C26"/>
<path d="M14.2091 25.2318C14.9894 25.2318 15.6459 24.8838 16.1217 24.3412L15.3414 23.6143C15.0655 23.9522 14.6468 24.1671 14.2187 24.1671C13.4099 24.1671 12.7343 23.3891 12.7343 22.4575C12.7343 21.5361 13.4099 20.7581 14.2187 20.7581C14.6373 20.7581 15.0465 20.9731 15.3129 21.2904L16.0931 20.5533C15.6269 20.0312 14.9704 19.6934 14.2282 19.6934C12.7914 19.6934 11.583 20.9526 11.583 22.4575C11.583 23.9624 12.7914 25.2318 14.2091 25.2318Z" fill="#171C26"/>
<path d="M18.9463 25.2318C20.0977 25.2318 20.8779 24.5766 20.8779 23.5631C20.8779 22.4575 19.9835 22.1504 19.1557 21.9047C18.404 21.6692 18.1471 21.5668 18.1471 21.229C18.1471 20.9321 18.4611 20.7581 18.8702 20.7581C19.2984 20.7581 19.8027 20.9219 20.2689 21.2392L20.7542 20.3281C20.2214 19.9493 19.5458 19.6934 18.8702 19.6934C17.776 19.6934 17.0147 20.3691 17.0147 21.3621C17.0243 22.3039 17.6998 22.6315 18.7655 22.9284C19.3269 23.0922 19.7551 23.2253 19.7551 23.6348C19.7551 23.9624 19.4316 24.1774 18.9654 24.1774C18.3469 24.1774 17.795 23.9317 17.3192 23.5631L16.7959 24.4333C17.3858 24.9452 18.1946 25.2318 18.9463 25.2318Z" fill="#171C26"/>
<path d="M23.7989 25.2318C24.9502 25.2318 25.7304 24.5766 25.7304 23.5631C25.7304 22.4575 24.836 22.1504 24.0082 21.9047C23.2565 21.6692 22.9996 21.5668 22.9996 21.229C22.9996 20.9321 23.3136 20.7581 23.7227 20.7581C24.1509 20.7581 24.6552 20.9219 25.1215 21.2392L25.6067 20.3281C25.0739 19.9493 24.3983 19.6934 23.7227 19.6934C22.6285 19.6934 21.8673 20.3691 21.8673 21.3621C21.8768 22.3039 22.5524 22.6315 23.6181 22.9284C24.1795 23.0922 24.6076 23.2253 24.6076 23.6348C24.6076 23.9624 24.2841 24.1774 23.8179 24.1774C23.1994 24.1774 22.6475 23.9317 22.1718 23.5631L21.6484 24.4333C22.2384 24.9452 23.0472 25.2318 23.7989 25.2318Z" fill="#171C26"/>
</g>
<defs>
<clipPath id="clip0_200_7830">
<rect width="32" height="32" fill="white" transform="translate(0.5)"/>
</clipPath>
</defs>
</svg>
