<svg width="46" height="15" viewBox="0 0 46 15" fill="none" xmlns="http://www.w3.org/2000/svg">
<path d="M5.3804 14.5833L5.40331 14.6599H5.48072H7.74614H7.82199L7.84584 14.5854L10.9065 5.012L13.9494 14.5852L13.9731 14.6599H14.0491H16.3329H16.4103L16.4332 14.5832L20.3976 1.26607L20.4396 1.12519H20.2973H17.7944H17.7157L17.6936 1.20353L15.1039 10.3999L12.2491 1.2007L12.2256 1.12519H12.149H9.66444H9.58803L9.56451 1.20051L6.69169 10.4011L4.1017 1.20353L4.07965 1.12519H4.00088H1.49796H1.35547L1.39764 1.2662L5.3804 14.5833ZM28.762 7.69743C29.9868 7.20202 30.8909 6.1635 30.8909 4.62628C30.8909 3.53553 30.4324 2.59846 29.6319 1.93645C28.8331 1.2758 27.6985 0.892578 26.3464 0.892578C24.1711 0.892578 22.6808 1.92075 21.6595 3.28008L21.6041 3.35399L21.6663 3.42189L23.0183 4.8951L23.0972 4.98118L23.1731 4.89213C24.0208 3.8971 24.9445 3.28125 26.1454 3.28125C27.4688 3.28125 28.3789 4.01504 28.3789 5.01397C28.3789 5.55943 28.154 5.97659 27.7554 6.2593C27.3523 6.54521 26.7642 6.69807 26.0371 6.68854H26.0358H24.629H24.524V6.79735V8.89087V9.00113L24.6304 8.99967L26.0358 8.98029C26.9127 8.98037 27.5656 9.13445 27.9955 9.42095C28.4184 9.7028 28.6347 10.1181 28.6347 10.6743C28.6347 11.2228 28.4162 11.6807 28.0215 12.0039C27.6245 12.3291 27.042 12.5232 26.3098 12.5232C24.9918 12.5232 23.8138 11.9001 22.9545 10.8743L22.8768 10.7816L22.7973 10.8726L21.4089 12.4622L21.3483 12.5315L21.4053 12.604C22.4487 13.9285 24.1597 14.8926 26.383 14.8926C27.8176 14.8926 29.012 14.48 29.85 13.7678C30.6894 13.0542 31.1649 12.0445 31.1649 10.8681C31.1649 9.14655 30.007 8.11372 28.762 7.69743ZM44.284 12.687L44.355 12.6083L44.2798 12.534L42.672 10.9445L42.5919 10.8652L42.5198 10.9524C41.7516 11.8811 40.6651 12.4651 39.4755 12.4651C37.2187 12.4651 35.3055 10.3873 35.3055 7.88288C35.3055 5.39812 37.2184 3.32003 39.4755 3.32003C40.6473 3.32003 41.7514 3.90434 42.5007 4.83181L42.5727 4.92091L42.6538 4.84066L44.2798 3.23175L44.3555 3.15689L44.2835 3.07821C43.0596 1.74028 41.352 0.892578 39.4755 0.892578C35.836 0.892578 32.7751 4.08225 32.7751 7.88288C32.7751 11.6831 35.8356 14.8926 39.4755 14.8926C41.3521 14.8926 43.06 14.0447 44.284 12.687Z" fill="white"/>
</svg>
